<svg id="visual" viewBox="0 0 900 600" width="900" height="600" xmlns="http://www.w3.org/2000/svg" xmlns:xlink="http://www.w3.org/1999/xlink" version="1.1"><g stroke-width="1" stroke-linejoin="bevel"><path d="M398 287L373 208L279 297Z" fill="#232323" stroke="#0a0a0a"></path><path d="M373 208L313 181L279 297Z" fill="#232323" stroke="#0a0a0a"></path><path d="M313 181L230 233L279 297Z" fill="#333333" stroke="#0a0a0a"></path><path d="M192 387L280 375L279 297Z" fill="#404040" stroke="#0a0a0a"></path><path d="M279 297L280 375L398 287Z" fill="#1f1f1f" stroke="#0a0a0a"></path><path d="M230 233L181 286L279 297Z" fill="#2f2f2f" stroke="#0a0a0a"></path><path d="M526 191L370 107L373 208Z" fill="#2f2f2f" stroke="#0a0a0a"></path><path d="M373 208L370 107L313 181Z" fill="#272727" stroke="#0a0a0a"></path><path d="M313 181L266 118L230 233Z" fill="#404040" stroke="#0a0a0a"></path><path d="M370 107L266 118L313 181Z" fill="#373737" stroke="#0a0a0a"></path><path d="M87 179L124 299L181 286Z" fill="#232323" stroke="#0a0a0a"></path><path d="M478 391L516 275L398 287Z" fill="#232323" stroke="#0a0a0a"></path><path d="M398 287L516 275L373 208Z" fill="#1f1f1f" stroke="#0a0a0a"></path><path d="M280 375L439 415L398 287Z" fill="#2f2f2f" stroke="#0a0a0a"></path><path d="M181 286L192 387L279 297Z" fill="#2f2f2f" stroke="#0a0a0a"></path><path d="M280 375L266 470L439 415Z" fill="#1b1b1b" stroke="#0a0a0a"></path><path d="M439 415L478 391L398 287Z" fill="#232323" stroke="#0a0a0a"></path><path d="M516 275L526 191L373 208Z" fill="#373737" stroke="#0a0a0a"></path><path d="M87 179L181 286L230 233Z" fill="#232323" stroke="#0a0a0a"></path><path d="M181 286L124 299L192 387Z" fill="#2b2b2b" stroke="#0a0a0a"></path><path d="M192 387L266 470L280 375Z" fill="#232323" stroke="#0a0a0a"></path><path d="M322 0L198 82L266 118Z" fill="#333333" stroke="#0a0a0a"></path><path d="M266 118L132 139L230 233Z" fill="#232323" stroke="#0a0a0a"></path><path d="M198 82L132 139L266 118Z" fill="#2b2b2b" stroke="#0a0a0a"></path><path d="M526 191L513 77L370 107Z" fill="#171717" stroke="#0a0a0a"></path><path d="M370 107L322 0L266 118Z" fill="#373737" stroke="#0a0a0a"></path><path d="M132 139L87 179L230 233Z" fill="#373737" stroke="#0a0a0a"></path><path d="M376 0L322 0L370 107Z" fill="#272727" stroke="#0a0a0a"></path><path d="M478 391L590 335L516 275Z" fill="#1f1f1f" stroke="#0a0a0a"></path><path d="M516 275L617 205L526 191Z" fill="#2f2f2f" stroke="#0a0a0a"></path><path d="M526 191L596 94L513 77Z" fill="#1f1f1f" stroke="#0a0a0a"></path><path d="M603 388L590 335L478 391Z" fill="#404040" stroke="#0a0a0a"></path><path d="M513 77L376 0L370 107Z" fill="#171717" stroke="#0a0a0a"></path><path d="M396 532L460 507L439 415Z" fill="#333333" stroke="#0a0a0a"></path><path d="M439 415L460 507L478 391Z" fill="#272727" stroke="#0a0a0a"></path><path d="M266 470L396 532L439 415Z" fill="#333333" stroke="#0a0a0a"></path><path d="M192 387L212 517L266 470Z" fill="#1b1b1b" stroke="#0a0a0a"></path><path d="M266 470L301 600L396 532Z" fill="#1f1f1f" stroke="#0a0a0a"></path><path d="M95 487L212 517L192 387Z" fill="#333333" stroke="#0a0a0a"></path><path d="M590 335L617 205L516 275Z" fill="#404040" stroke="#0a0a0a"></path><path d="M0 331L89 415L124 299Z" fill="#1b1b1b" stroke="#0a0a0a"></path><path d="M124 299L89 415L192 387Z" fill="#2f2f2f" stroke="#0a0a0a"></path><path d="M603 467L603 388L478 391Z" fill="#232323" stroke="#0a0a0a"></path><path d="M590 335L708 300L617 205Z" fill="#171717" stroke="#0a0a0a"></path><path d="M617 205L596 94L526 191Z" fill="#171717" stroke="#0a0a0a"></path><path d="M513 77L534 0L376 0Z" fill="#1b1b1b" stroke="#0a0a0a"></path><path d="M322 0L171 0L198 82Z" fill="#1b1b1b" stroke="#0a0a0a"></path><path d="M198 82L84 0L132 139Z" fill="#3c3c3c" stroke="#0a0a0a"></path><path d="M0 70L0 175L87 179Z" fill="#232323" stroke="#0a0a0a"></path><path d="M89 415L95 487L192 387Z" fill="#373737" stroke="#0a0a0a"></path><path d="M587 0L534 0L513 77Z" fill="#171717" stroke="#0a0a0a"></path><path d="M516 600L603 467L460 507Z" fill="#1f1f1f" stroke="#0a0a0a"></path><path d="M460 507L603 467L478 391Z" fill="#2b2b2b" stroke="#0a0a0a"></path><path d="M603 388L708 300L590 335Z" fill="#171717" stroke="#0a0a0a"></path><path d="M212 517L301 600L266 470Z" fill="#404040" stroke="#0a0a0a"></path><path d="M396 532L430 600L460 507Z" fill="#2b2b2b" stroke="#0a0a0a"></path><path d="M201 600L301 600L212 517Z" fill="#232323" stroke="#0a0a0a"></path><path d="M87 179L0 331L124 299Z" fill="#1b1b1b" stroke="#0a0a0a"></path><path d="M89 415L0 423L95 487Z" fill="#2b2b2b" stroke="#0a0a0a"></path><path d="M0 175L0 331L87 179Z" fill="#333333" stroke="#0a0a0a"></path><path d="M0 70L87 179L132 139Z" fill="#232323" stroke="#0a0a0a"></path><path d="M301 600L430 600L396 532Z" fill="#2f2f2f" stroke="#0a0a0a"></path><path d="M89 600L201 600L212 517Z" fill="#373737" stroke="#0a0a0a"></path><path d="M687 0L587 0L596 94Z" fill="#171717" stroke="#0a0a0a"></path><path d="M596 94L587 0L513 77Z" fill="#1b1b1b" stroke="#0a0a0a"></path><path d="M171 0L84 0L198 82Z" fill="#2f2f2f" stroke="#0a0a0a"></path><path d="M0 331L0 423L89 415Z" fill="#333333" stroke="#0a0a0a"></path><path d="M95 487L89 600L212 517Z" fill="#2b2b2b" stroke="#0a0a0a"></path><path d="M719 415L708 300L603 388Z" fill="#272727" stroke="#0a0a0a"></path><path d="M617 205L709 130L596 94Z" fill="#3c3c3c" stroke="#0a0a0a"></path><path d="M430 600L516 600L460 507Z" fill="#272727" stroke="#0a0a0a"></path><path d="M84 0L0 70L132 139Z" fill="#272727" stroke="#0a0a0a"></path><path d="M731 205L709 130L617 205Z" fill="#2f2f2f" stroke="#0a0a0a"></path><path d="M708 300L731 205L617 205Z" fill="#232323" stroke="#0a0a0a"></path><path d="M664 524L719 415L603 467Z" fill="#404040" stroke="#0a0a0a"></path><path d="M603 467L719 415L603 388Z" fill="#2f2f2f" stroke="#0a0a0a"></path><path d="M708 300L767 312L731 205Z" fill="#171717" stroke="#0a0a0a"></path><path d="M0 538L89 600L95 487Z" fill="#232323" stroke="#0a0a0a"></path><path d="M597 600L664 524L603 467Z" fill="#272727" stroke="#0a0a0a"></path><path d="M516 600L597 600L603 467Z" fill="#404040" stroke="#0a0a0a"></path><path d="M84 0L0 0L0 70Z" fill="#1b1b1b" stroke="#0a0a0a"></path><path d="M719 415L767 312L708 300Z" fill="#3c3c3c" stroke="#0a0a0a"></path><path d="M792 62L687 0L709 130Z" fill="#272727" stroke="#0a0a0a"></path><path d="M0 423L0 538L95 487Z" fill="#404040" stroke="#0a0a0a"></path><path d="M816 178L709 130L731 205Z" fill="#404040" stroke="#0a0a0a"></path><path d="M709 130L687 0L596 94Z" fill="#3c3c3c" stroke="#0a0a0a"></path><path d="M0 538L0 600L89 600Z" fill="#373737" stroke="#0a0a0a"></path><path d="M664 524L773 473L719 415Z" fill="#3c3c3c" stroke="#0a0a0a"></path><path d="M719 415L818 392L767 312Z" fill="#171717" stroke="#0a0a0a"></path><path d="M701 600L773 473L664 524Z" fill="#272727" stroke="#0a0a0a"></path><path d="M900 291L816 178L767 312Z" fill="#232323" stroke="#0a0a0a"></path><path d="M767 312L816 178L731 205Z" fill="#404040" stroke="#0a0a0a"></path><path d="M597 600L701 600L664 524Z" fill="#1f1f1f" stroke="#0a0a0a"></path><path d="M816 178L792 62L709 130Z" fill="#404040" stroke="#0a0a0a"></path><path d="M773 473L818 392L719 415Z" fill="#3c3c3c" stroke="#0a0a0a"></path><path d="M900 0L818 0L792 62Z" fill="#171717" stroke="#0a0a0a"></path><path d="M792 62L818 0L687 0Z" fill="#1f1f1f" stroke="#0a0a0a"></path><path d="M900 113L792 62L816 178Z" fill="#3c3c3c" stroke="#0a0a0a"></path><path d="M900 368L900 291L818 392Z" fill="#272727" stroke="#0a0a0a"></path><path d="M818 392L900 291L767 312Z" fill="#2b2b2b" stroke="#0a0a0a"></path><path d="M900 368L818 392L900 499Z" fill="#272727" stroke="#0a0a0a"></path><path d="M900 291L900 208L816 178Z" fill="#333333" stroke="#0a0a0a"></path><path d="M900 499L818 392L773 473Z" fill="#1b1b1b" stroke="#0a0a0a"></path><path d="M900 208L900 113L816 178Z" fill="#3c3c3c" stroke="#0a0a0a"></path><path d="M701 600L827 600L773 473Z" fill="#333333" stroke="#0a0a0a"></path><path d="M827 600L900 499L773 473Z" fill="#333333" stroke="#0a0a0a"></path><path d="M900 113L900 0L792 62Z" fill="#3c3c3c" stroke="#0a0a0a"></path><path d="M827 600L900 600L900 499Z" fill="#404040" stroke="#0a0a0a"></path></g></svg>