<svg id="visual" viewBox="0 0 900 600" width="900" height="600" xmlns="http://www.w3.org/2000/svg" xmlns:xlink="http://www.w3.org/1999/xlink" version="1.1"><rect width="900" height="600" fill="#001829"></rect><g><g transform="translate(762 394)"><path d="M0 -71.4L55.9 -44.5L69.7 15.9L31 64.4L-31 64.4L-69.7 15.9L-55.9 -44.5Z" fill="#297EA6"></path></g><g transform="translate(164 419)"><path d="M0 -59L46.1 -36.8L57.5 13.1L25.6 53.2L-25.6 53.2L-57.5 13.1L-46.1 -36.8Z" fill="#297EA6"></path></g><g transform="translate(117 165)"><path d="M0 -52L40.7 -32.4L50.7 11.6L22.6 46.9L-22.6 46.9L-50.7 11.6L-40.7 -32.4Z" fill="#297EA6"></path></g><g transform="translate(565 330)"><path d="M0 -35L27.4 -21.8L34.1 7.8L15.2 31.5L-15.2 31.5L-34.1 7.8L-27.4 -21.8Z" fill="#297EA6"></path></g><g transform="translate(418 126)"><path d="M0 -48L37.5 -29.9L46.8 10.7L20.8 43.2L-20.8 43.2L-46.8 10.7L-37.5 -29.9Z" fill="#297EA6"></path></g><g transform="translate(339 434)"><path d="M0 -65L50.8 -40.5L63.4 14.5L28.2 58.6L-28.2 58.6L-63.4 14.5L-50.8 -40.5Z" fill="#297EA6"></path></g><g transform="translate(794 86)"><path d="M0 -45L35.2 -28.1L43.9 10L19.5 40.5L-19.5 40.5L-43.9 10L-35.2 -28.1Z" fill="#297EA6"></path></g><g transform="translate(392 278)"><path d="M0 -39L30.5 -24.3L38 8.7L16.9 35.1L-16.9 35.1L-38 8.7L-30.5 -24.3Z" fill="#297EA6"></path></g><g transform="translate(682 217)"><path d="M0 -67L52.4 -41.8L65.3 14.9L29.1 60.4L-29.1 60.4L-65.3 14.9L-52.4 -41.8Z" fill="#297EA6"></path></g><g transform="translate(559 95)"><path d="M0 -42L32.8 -26.2L40.9 9.3L18.2 37.8L-18.2 37.8L-40.9 9.3L-32.8 -26.2Z" fill="#297EA6"></path></g></g></svg>