<svg id="visual" viewBox="0 0 900 600" width="900" height="600" xmlns="http://www.w3.org/2000/svg" xmlns:xlink="http://www.w3.org/1999/xlink" version="1.1"><path d="M0 223L18.8 211C37.7 199 75.3 175 112.8 170C150.3 165 187.7 179 225.2 182C262.7 185 300.3 177 337.8 185C375.3 193 412.7 217 450.2 221C487.7 225 525.3 209 562.8 198C600.3 187 637.7 181 675.2 187C712.7 193 750.3 211 787.8 195C825.3 179 862.7 129 881.3 104L900 79L900 0L881.3 0C862.7 0 825.3 0 787.8 0C750.3 0 712.7 0 675.2 0C637.7 0 600.3 0 562.8 0C525.3 0 487.7 0 450.2 0C412.7 0 375.3 0 337.8 0C300.3 0 262.7 0 225.2 0C187.7 0 150.3 0 112.8 0C75.3 0 37.7 0 18.8 0L0 0Z" fill="#004cbb"></path><path d="M0 355L18.8 353C37.7 351 75.3 347 112.8 359C150.3 371 187.7 399 225.2 394C262.7 389 300.3 351 337.8 352C375.3 353 412.7 393 450.2 402C487.7 411 525.3 389 562.8 377C600.3 365 637.7 363 675.2 362C712.7 361 750.3 361 787.8 349C825.3 337 862.7 313 881.3 301L900 289L900 77L881.3 102C862.7 127 825.3 177 787.8 193C750.3 209 712.7 191 675.2 185C637.7 179 600.3 185 562.8 196C525.3 207 487.7 223 450.2 219C412.7 215 375.3 191 337.8 183C300.3 175 262.7 183 225.2 180C187.7 177 150.3 163 112.8 168C75.3 173 37.7 197 18.8 209L0 221Z" fill="#2573ff"></path><path d="M0 445L18.8 441C37.7 437 75.3 429 112.8 435C150.3 441 187.7 461 225.2 455C262.7 449 300.3 417 337.8 415C375.3 413 412.7 441 450.2 445C487.7 449 525.3 429 562.8 427C600.3 425 637.7 441 675.2 440C712.7 439 750.3 421 787.8 407C825.3 393 862.7 383 881.3 378L900 373L900 287L881.3 299C862.7 311 825.3 335 787.8 347C750.3 359 712.7 359 675.2 360C637.7 361 600.3 363 562.8 375C525.3 387 487.7 409 450.2 400C412.7 391 375.3 351 337.8 350C300.3 349 262.7 387 225.2 392C187.7 397 150.3 369 112.8 357C75.3 345 37.7 349 18.8 351L0 353Z" fill="#6198ff"></path><path d="M0 547L18.8 535C37.7 523 75.3 499 112.8 497C150.3 495 187.7 515 225.2 514C262.7 513 300.3 491 337.8 489C375.3 487 412.7 505 450.2 512C487.7 519 525.3 515 562.8 512C600.3 509 637.7 507 675.2 502C712.7 497 750.3 489 787.8 487C825.3 485 862.7 489 881.3 491L900 493L900 371L881.3 376C862.7 381 825.3 391 787.8 405C750.3 419 712.7 437 675.2 438C637.7 439 600.3 423 562.8 425C525.3 427 487.7 447 450.2 443C412.7 439 375.3 411 337.8 413C300.3 415 262.7 447 225.2 453C187.7 459 150.3 439 112.8 433C75.3 427 37.7 435 18.8 439L0 443Z" fill="#2573ff"></path><path d="M0 601L18.8 601C37.7 601 75.3 601 112.8 601C150.3 601 187.7 601 225.2 601C262.7 601 300.3 601 337.8 601C375.3 601 412.7 601 450.2 601C487.7 601 525.3 601 562.8 601C600.3 601 637.7 601 675.2 601C712.7 601 750.3 601 787.8 601C825.3 601 862.7 601 881.3 601L900 601L900 491L881.3 489C862.7 487 825.3 483 787.8 485C750.3 487 712.7 495 675.2 500C637.7 505 600.3 507 562.8 510C525.3 513 487.7 517 450.2 510C412.7 503 375.3 485 337.8 487C300.3 489 262.7 511 225.2 512C187.7 513 150.3 493 112.8 495C75.3 497 37.7 521 18.8 533L0 545Z" fill="#004cbb"></path></svg>