<svg id="visual" viewBox="0 0 900 600" width="900" height="600" xmlns="http://www.w3.org/2000/svg" xmlns:xlink="http://www.w3.org/1999/xlink" version="1.1"><rect x="0" y="0" width="900" height="600" fill="#002233"></rect><path d="M0 167L21.5 179.3C43 191.7 86 216.3 128.8 221.2C171.7 226 214.3 211 257.2 201C300 191 343 186 385.8 188.3C428.7 190.7 471.3 200.3 514.2 201.2C557 202 600 194 642.8 187.7C685.7 181.3 728.3 176.7 771.2 170.5C814 164.3 857 156.7 878.5 152.8L900 149L900 0L878.5 0C857 0 814 0 771.2 0C728.3 0 685.7 0 642.8 0C600 0 557 0 514.2 0C471.3 0 428.7 0 385.8 0C343 0 300 0 257.2 0C214.3 0 171.7 0 128.8 0C86 0 43 0 21.5 0L0 0Z" fill="#0066FF" stroke-linecap="round" stroke-linejoin="miter"></path></svg>